<svg xmlns="http://www.w3.org/2000/svg" viewBox="0 0 500 500" width="500" height="500" preserveAspectRatio="xMidYMid slice" style="width: 100%; height: 100%; transform: translate3d(0px, 0px, 0px); content-visibility: visible;"><defs><clipPath id="__lottie_element_77"><rect width="500" height="500" x="0" y="0"></rect></clipPath></defs><g clip-path="url(#__lottie_element_77)"><g transform="matrix(3.700000047683716,0,0,3.700000047683716,240.75,250)" opacity="1" style="display: block;"><g opacity="1" transform="matrix(1,0,0,1,0,0)"><path stroke-linecap="round" stroke-linejoin="round" fill-opacity="0" stroke="rgb(14,116,144)" stroke-opacity="1" stroke-width="3.5" d=" M-24,17 M-23.625,17.125 C-23.625,17.125 -25.916000366210938,17.41900062561035 -26.944000244140625,18.694000244140625 C-28.554000854492188,20.690000534057617 -28.520000457763672,24 -22.875,24 C-13.625,24 24.5,24 24.5,24"></path></g><g opacity="1" transform="matrix(1,0,0,1,-19.375,31.5)"><path stroke-linecap="butt" stroke-linejoin="miter" fill-opacity="0" stroke-miterlimit="4" stroke="rgb(35,35,35)" stroke-opacity="1" stroke-width="3.5" d=" M0,-7.5 C4.139249801635742,-7.5 7.5,-4.139249801635742 7.5,0 C7.5,4.139249801635742 4.139249801635742,7.5 0,7.5 C-4.139249801635742,7.5 -7.5,4.139249801635742 -7.5,0 C-7.5,-4.139249801635742 -4.139249801635742,-7.5 0,-7.5z"></path></g><g opacity="1" transform="matrix(1,0,0,1,25,31.5)"><path stroke-linecap="butt" stroke-linejoin="miter" fill-opacity="0" stroke-miterlimit="4" stroke="rgb(35,35,35)" stroke-opacity="1" stroke-width="3.5" d=" M0,-7.5 C4.139249801635742,-7.5 7.5,-4.139249801635742 7.5,0 C7.5,4.139249801635742 4.139249801635742,7.5 0,7.5 C-4.139249801635742,7.5 -7.5,4.139249801635742 -7.5,0 C-7.5,-4.139249801635742 -4.139249801635742,-7.5 0,-7.5z"></path></g></g><g transform="matrix(3.6940882205963135,0.209079310297966,-0.209079310297966,3.6940882205963135,244.39622497558594,255.6427001953125)" opacity="1" style="display: block;"><g opacity="1" transform="matrix(1,0,0,1,0,0)"><path stroke-linecap="round" stroke-linejoin="round" fill-opacity="0" stroke="rgb(14,116,144)" stroke-opacity="1" stroke-width="3.5" d=" M-47,-38 C-47,-38 -40.125,-38 -40.125,-38 C-36.3306884765625,-38 -32.506813049316406,-33.581058502197266 -31.591474533081055,-28.13849449157715 C-31.591474533081055,-28.13849449157715 -24,17 -24,17 M-30.93899917602539,-28.027000427246094 C-30.93899917602539,-28.027000427246094 35.5,-28.00353240966797 35.5,-28.00353240966797 C41.01900100708008,-28.001583099365234 45.78006362915039,-28 46.125,-28 C46.125,-28 46.125,-28 46.125,-28 C46.46993637084961,-28 46.64088821411133,-27.623371124267578 46.506500244140625,-27.159500122070312 C46.506500244140625,-27.159500122070312 46.506500244140625,-27.159500122070312 46.506500244140625,-27.159500122070312 C46.37211227416992,-26.695629119873047 45.01528549194336,-22.015214920043945 43.47854232788086,-16.714481353759766 C43.47854232788086,-16.714481353759766 38.40945816040039,0.7704803943634033 38.40945816040039,0.7704803943634033 C36.87271499633789,6.07121467590332 31.17279815673828,10.88221263885498 25.689268112182617,11.506918907165527 C25.689268112182617,11.506918907165527 -13.689268112182617,15.993081092834473 -13.689268112182617,15.993081092834473 C-19.17279815673828,16.617786407470703 -24.368621826171875,17.476533889770508 -25.284500122070312,17.909500122070312 C-25.284500122070312,17.909500122070312 -25.916000366210938,17.41900062561035 -26.944000244140625,18.694000244140625"></path></g></g><g class="com" style="display: none;"><g><path></path></g><g><path></path></g><g><path></path></g><g><path></path></g><g><path></path></g><g><path></path></g><g><path></path></g><g><path></path></g><g><path></path></g><g><path></path></g><g><path></path></g><g><path></path></g></g></g></svg>