<svg xmlns="http://www.w3.org/2000/svg" viewBox="0 0 500 500" width="500" height="500" preserveAspectRatio="xMidYMid slice" style="width: 100%; height: 100%; transform: translate3d(0px, 0px, 0px); content-visibility: visible;"><defs><clipPath id="__lottie_element_32"><rect width="500" height="500" x="0" y="0"></rect></clipPath></defs><g clip-path="url(#__lottie_element_32)"><g transform="matrix(3.4695022106170654,0,0,3.4695022106170654,250,250)" opacity="1" style="display: block;"><g opacity="1" transform="matrix(1,0,0,1,0,0)"><path stroke-linecap="round" stroke-linejoin="round" fill-opacity="0" stroke="rgb(201,14,29)" stroke-opacity="1" stroke-width="3.71" d=" M41.41299819946289,4.2729997634887695 C47.125,-1.4390000104904175 49.99399948120117,-8.930999755859375 49.99399948120117,-16.410999298095703 C49.99399948120117,-23.902999877929688 47.125,-31.395000457763672 41.41299819946289,-37.106998443603516 C36.53799819946289,-41.98699951171875 30.3700008392334,-44.78499984741211 24.01099967956543,-45.5 C15.468000411987305,-46.46099853515625 6.584000110626221,-43.66299819946289 0.03400000184774399,-37.106998443603516 C0.03400000184774399,-37.106998443603516 -0.0010000000474974513,-37.071998596191406 -0.0010000000474974513,-37.071998596191406 C-0.0010000000474974513,-37.071998596191406 -0.03700000047683716,-37.106998443603516 -0.03700000047683716,-37.106998443603516 C-5.749000072479248,-42.819000244140625 -13.241000175476074,-45.6879997253418 -20.72100067138672,-45.6879997253418 C-28.21299934387207,-45.6879997253418 -35.70399856567383,-42.819000244140625 -41.41600036621094,-37.106998443603516 C-52.85300064086914,-25.68199920654297 -52.85300064086914,-7.1519999504089355 -41.41600036621094,4.2729997634887695 C-41.41600036621094,4.2729997634887695 -0.0010000000474974513,45.6879997253418 -0.0010000000474974513,45.6879997253418 C-0.0010000000474974513,45.6879997253418 41.41299819946289,4.2729997634887695 41.41299819946289,4.2729997634887695z"></path></g></g><g transform="matrix(2.6969499588012695,0,0,2.6969499588012695,250,250)" opacity="1" style="display: block;"><g opacity="1" transform="matrix(1,0,0,1,0,0)"><path stroke-linecap="round" stroke-linejoin="round" fill-opacity="0" stroke="rgb(188,93,120)" stroke-opacity="1" stroke-width="4.41" d=" M-29.115999221801758,-48.58700180053711 C-35.143001556396484,-47.70899963378906 -40.94900131225586,-44.94599914550781 -45.58300018310547,-40.3120002746582 C-53.82600021362305,-32.077999114990234 -56.12799835205078,-20.152999877929688 -52.48899841308594,-9.857999801635742"></path></g></g><g class="com" style="display: none;"><g><path></path></g><g><path></path></g><g><path></path></g><g><path></path></g><g><path></path></g><g><path></path></g><g><path></path></g><g><path></path></g><g><path></path></g><g><path></path></g><g><path></path></g><g><path></path></g></g></g></svg>